# xmcd CD database file
#
# Track frame offsets:
#	225
#	14092
#	29414
#	40947
#	56123
#	71611
#	86117
#	98186
#	113827
#	127833
#	139481
#	153787
#	168734
#	181843
#
# Disc length: 2794 seconds
#
# Revision: 0
# Processed by: cddbd v1.4PL0 Copyright (c) Steve Scherf et al.
# Submitted via: CDex 1.50beta10
#
DISCID=c40ae70e
DTITLE=Vera Martinova - Zvlastni zpusoby
DYEAR=1996
DGENRE=Country
TTITLE0=Jako driv
TTITLE1=Myslenky
TTITLE2=Kopretina
TTITLE3=Divoka
TTITLE4=Romance z krcmy
TTITLE5=Obchodnik
TTITLE6=Pukla vaza
TTITLE7=Zvlastni zpusoby
TTITLE8=Za deset ruzi
TTITLE9=Svou karu tlacime kazdy sam
TTITLE10=Batalion
TTITLE11=Pod mesicem
TTITLE12=Jak kdy
TTITLE13=Nahodny znamosti
EXTD=YEAR: 1996
EXTT0=
EXTT1=
EXTT2=
EXTT3=
EXTT4=
EXTT5=
EXTT6=
EXTT7=
EXTT8=
EXTT9=
EXTT10=
EXTT11=
EXTT12=
EXTT13=
PLAYORDER=
